<?xml version="1.0" standalone="no"?>
<!DOCTYPE svg PUBLIC "-//W3C//DTD SVG 20010904//EN"
 "http://www.w3.org/TR/2001/REC-SVG-20010904/DTD/svg10.dtd">
<svg version="1.0" xmlns="http://www.w3.org/2000/svg"
 width="512.000000pt" height="512.000000pt" viewBox="0 0 512.000000 512.000000"
 preserveAspectRatio="xMidYMid meet">
<metadata>
Created by potrace 1.14, written by Peter Selinger 2001-2017
</metadata>
<g transform="translate(0.000000,512.000000) scale(0.100000,-0.100000)"
fill="#000000" stroke="none">
<path d="M2566 3346 c-52 -19 -111 -78 -125 -125 -7 -26 -11 -190 -11 -524 0
-462 -1 -486 -19 -508 -19 -24 -21 -24 -268 -29 -162 -3 -255 -9 -268 -17 -32
-18 -83 -76 -94 -106 -31 -81 4 -180 80 -232 l44 -30 243 -3 c273 -4 317 2
421 54 89 44 161 120 209 221 l37 78 0 552 0 551 -30 43 c-51 71 -143 103
-219 75z"/>
<path d="M3509 3350 c-107 -19 -238 -95 -302 -174 -160 -202 -151 -464 24
-650 96 -103 222 -156 372 -156 104 0 149 -32 149 -105 0 -36 -24 -79 -50 -91
-9 -5 -123 -11 -254 -14 l-236 -5 -39 -31 c-56 -45 -78 -89 -78 -154 0 -79 37
-139 107 -174 51 -26 55 -26 267 -26 119 0 234 5 256 11 22 5 45 11 50 12 53
13 155 75 204 125 95 95 141 207 141 347 0 145 -53 270 -154 361 -33 30 -83
66 -111 79 -62 31 -171 55 -248 55 -51 0 -62 4 -88 29 -40 40 -41 106 -3 144
l25 25 232 4 c249 3 265 6 313 60 87 95 71 230 -36 303 l-45 30 -225 2 c-124
1 -246 -2 -271 -7z"/>
<path d="M1182 2289 c-190 -37 -269 -278 -139 -425 94 -107 231 -122 348 -38
222 160 62 516 -209 463z"/>
</g>
</svg>
