<svg width="39" height="39" viewBox="0 0 39 39" fill="none" xmlns="http://www.w3.org/2000/svg">
<path fill-rule="evenodd" clip-rule="evenodd" d="M0.732233 4.26777C-0.244078 3.29146 -0.244078 1.70854 0.732233 0.732233C1.70854 -0.244078 3.29146 -0.244078 4.26777 0.732233L19.4978 15.9623L34.7279 0.732233C35.7042 -0.244078 37.2871 -0.244078 38.2634 0.732233C39.2397 1.70854 39.2397 3.29146 38.2634 4.26777L23.0334 19.4978L38.2634 34.7279C39.2397 35.7042 39.2397 37.2871 38.2634 38.2634C37.2871 39.2397 35.7042 39.2397 34.7279 38.2634L19.4978 23.0334L4.26777 38.2634C3.29146 39.2397 1.70855 39.2397 0.732235 38.2634C-0.244076 37.2871 -0.244075 35.7042 0.732235 34.7279L15.9623 19.4978L0.732233 4.26777Z" fill="#6358FF"/>
</svg>
