<svg width="40" height="40" viewBox="0 0 40 40" fill="none" xmlns="http://www.w3.org/2000/svg">
<rect width="40" height="40" rx="15" fill="#E4E2FF"/>
<path fill-rule="evenodd" clip-rule="evenodd" d="M9.54414 12.6408C9.70687 11.9887 10.3008 11.5 11.0006 11.5H29.005C29.7048 11.5 30.2987 11.9887 30.4614 12.6408L20.0028 19.9616L9.54414 12.6408ZM8.00009 12.9883C7.99998 12.9954 7.99997 13.0026 8.00006 13.0097V26.5031C8.00006 28.1551 9.34863 29.5036 11.0006 29.5036H29.005C30.6569 29.5036 32.0055 28.1551 32.0055 26.5031V13.0097M30.5055 14.441V26.5031C30.5055 27.3266 29.8286 28.0036 29.005 28.0036H11.0006C10.177 28.0036 9.50006 27.3266 9.50006 26.5031V14.441L19.5727 21.4915C19.8309 21.6722 20.1746 21.6722 20.4329 21.4915L30.5055 14.441ZM32.0055 12.9883C31.9989 11.3418 30.6529 10 29.005 10H11.0006C9.35268 10 8.00668 11.3418 8.00009 12.9883" fill="#9088FF"/>
</svg>
