<svg width="40" height="40" viewBox="0 0 40 40" fill="none" xmlns="http://www.w3.org/2000/svg">
<rect width="40" height="40" rx="15" fill="#E4E2FF"/>
<path fill-rule="evenodd" clip-rule="evenodd" d="M14.3764 9.5C11.6832 9.5 9.5 11.6832 9.5 14.3764V25.6291C9.5 28.3223 11.6832 30.5055 14.3764 30.5055H25.6291C28.3223 30.5055 30.5055 28.3223 30.5055 25.6291V14.3764C30.5055 11.6832 28.3223 9.5 25.6291 9.5H14.3764ZM8 14.3764C8 10.8548 10.8548 8 14.3764 8H25.6291C29.1507 8 32.0055 10.8548 32.0055 14.3764V25.6291C32.0055 29.1507 29.1507 32.0055 25.6291 32.0055H14.3764C10.8548 32.0055 8 29.1507 8 25.6291V14.3764ZM20.5805 16.1066C19.761 15.9851 18.9241 16.1251 18.1887 16.5066C17.4534 16.8882 16.8571 17.4919 16.4846 18.2319C16.1122 18.9719 15.9825 19.8105 16.1141 20.6284C16.2458 21.4463 16.6319 22.2019 17.2177 22.7877C17.8035 23.3735 18.5591 23.7597 19.377 23.8913C20.1949 24.0229 21.0335 23.8932 21.7735 23.5208C22.5135 23.1483 23.1172 22.552 23.4988 21.8167C23.8803 21.0813 24.0203 20.2444 23.8988 19.4249C23.7748 18.589 23.3853 17.8151 22.7878 17.2176C22.1903 16.6201 21.4164 16.2306 20.5805 16.1066ZM17.4979 15.1752C18.5133 14.6483 19.6689 14.455 20.8005 14.6228C21.9548 14.794 23.0234 15.3318 23.8485 16.1569C24.6736 16.982 25.2114 18.0506 25.3826 19.2049C25.5504 20.3365 25.3571 21.4921 24.8302 22.5075C24.3033 23.5229 23.4697 24.3463 22.4479 24.8606C21.4261 25.3749 20.2681 25.554 19.1387 25.3722C18.0093 25.1905 16.9659 24.6572 16.1571 23.8483C15.3482 23.0395 14.8149 21.9961 14.6332 20.8667C14.4514 19.7373 14.6305 18.5793 15.1448 17.5575C15.6591 16.5357 16.4825 15.7021 17.4979 15.1752ZM26.5669 12.6886C26.1526 12.6886 25.8169 13.0244 25.8169 13.4386C25.8169 13.8528 26.1526 14.1886 26.5669 14.1886H26.5788C26.9931 14.1886 27.3288 13.8528 27.3288 13.4386C27.3288 13.0244 26.9931 12.6886 26.5788 12.6886H26.5669Z" fill="#9088FF"/>
</svg>
