<svg width="106" height="40" viewBox="0 0 106 40" fill="none" xmlns="http://www.w3.org/2000/svg">
<path d="M41.35 9.725C41.5167 9.675 41.7833 9.625 42.15 9.575C42.5167 9.50833 42.8917 9.475 43.275 9.475C43.6417 9.475 43.9667 9.5 44.25 9.55C44.55 9.6 44.8 9.7 45 9.85C45.2 10 45.35 10.2083 45.45 10.475C45.55 10.725 45.6 11.0583 45.6 11.475V13.925C46.0167 13.7583 46.4083 13.6417 46.775 13.575C47.1583 13.5083 47.575 13.475 48.025 13.475C48.825 13.475 49.5833 13.6167 50.3 13.9C51.0167 14.1833 51.65 14.6 52.2 15.15C52.75 15.6833 53.1833 16.35 53.5 17.15C53.8167 17.95 53.975 18.875 53.975 19.925C53.975 21.0083 53.8083 21.9583 53.475 22.775C53.1583 23.575 52.7083 24.2417 52.125 24.775C51.5417 25.3083 50.825 25.7167 49.975 26C49.1417 26.2667 48.2167 26.4 47.2 26.4C46.1 26.4 45.1667 26.2667 44.4 26C43.6333 25.75 42.9833 25.4333 42.45 25.05C41.7167 24.5333 41.35 23.8667 41.35 23.05V9.725ZM47.2 23.05C47.9667 23.05 48.5583 22.7917 48.975 22.275C49.4083 21.7417 49.625 20.9583 49.625 19.925C49.625 18.875 49.4083 18.0917 48.975 17.575C48.5417 17.0583 47.9583 16.8 47.225 16.8C46.8917 16.8 46.6 16.8333 46.35 16.9C46.1167 16.9667 45.8583 17.0667 45.575 17.2V22.65C45.7583 22.7667 45.975 22.8667 46.225 22.95C46.4917 23.0167 46.8167 23.05 47.2 23.05ZM71.1211 19.925C71.1211 20.9583 70.9628 21.8833 70.6461 22.7C70.3294 23.5 69.8794 24.175 69.2961 24.725C68.7294 25.275 68.0461 25.6917 67.2461 25.975C66.4461 26.2583 65.5544 26.4 64.5711 26.4C63.5878 26.4 62.6961 26.25 61.8961 25.95C61.0961 25.65 60.4044 25.225 59.8211 24.675C59.2544 24.1083 58.8128 23.425 58.4961 22.625C58.1794 21.825 58.0211 20.925 58.0211 19.925C58.0211 18.9417 58.1794 18.05 58.4961 17.25C58.8128 16.45 59.2544 15.775 59.8211 15.225C60.4044 14.6583 61.0961 14.225 61.8961 13.925C62.6961 13.625 63.5878 13.475 64.5711 13.475C65.5544 13.475 66.4461 13.6333 67.2461 13.95C68.0461 14.25 68.7294 14.6833 69.2961 15.25C69.8794 15.8 70.3294 16.475 70.6461 17.275C70.9628 18.075 71.1211 18.9583 71.1211 19.925ZM62.3711 19.925C62.3711 20.9417 62.5628 21.725 62.9461 22.275C63.3461 22.8083 63.8961 23.075 64.5961 23.075C65.2961 23.075 65.8294 22.8 66.1961 22.25C66.5794 21.7 66.7711 20.925 66.7711 19.925C66.7711 18.925 66.5794 18.1583 66.1961 17.625C65.8128 17.075 65.2711 16.8 64.5711 16.8C63.8711 16.8 63.3294 17.075 62.9461 17.625C62.5628 18.1583 62.3711 18.925 62.3711 19.925ZM88.2695 19.925C88.2695 20.9583 88.1112 21.8833 87.7945 22.7C87.4779 23.5 87.0279 24.175 86.4445 24.725C85.8779 25.275 85.1945 25.6917 84.3945 25.975C83.5945 26.2583 82.7029 26.4 81.7195 26.4C80.7362 26.4 79.8445 26.25 79.0445 25.95C78.2445 25.65 77.5529 25.225 76.9695 24.675C76.4029 24.1083 75.9612 23.425 75.6445 22.625C75.3279 21.825 75.1695 20.925 75.1695 19.925C75.1695 18.9417 75.3279 18.05 75.6445 17.25C75.9612 16.45 76.4029 15.775 76.9695 15.225C77.5529 14.6583 78.2445 14.225 79.0445 13.925C79.8445 13.625 80.7362 13.475 81.7195 13.475C82.7029 13.475 83.5945 13.6333 84.3945 13.95C85.1945 14.25 85.8779 14.6833 86.4445 15.25C87.0279 15.8 87.4779 16.475 87.7945 17.275C88.1112 18.075 88.2695 18.9583 88.2695 19.925ZM79.5195 19.925C79.5195 20.9417 79.7112 21.725 80.0945 22.275C80.4945 22.8083 81.0445 23.075 81.7445 23.075C82.4445 23.075 82.9779 22.8 83.3445 22.25C83.7279 21.7 83.9195 20.925 83.9195 19.925C83.9195 18.925 83.7279 18.1583 83.3445 17.625C82.9612 17.075 82.4195 16.8 81.7195 16.8C81.0195 16.8 80.4779 17.075 80.0945 17.625C79.7112 18.1583 79.5195 18.925 79.5195 19.925ZM104.718 23.8C104.635 24.5833 104.401 25.1833 104.018 25.6C103.651 26.0167 103.11 26.225 102.393 26.225C101.86 26.225 101.385 26.1 100.968 25.85C100.551 25.5833 100.101 25.1417 99.618 24.525L97.143 21.425V25.975C96.9596 26.0083 96.6846 26.05 96.318 26.1C95.968 26.1667 95.6096 26.2 95.243 26.2C94.8763 26.2 94.543 26.175 94.243 26.125C93.9596 26.075 93.718 25.975 93.518 25.825C93.318 25.675 93.1596 25.475 93.043 25.225C92.943 24.9583 92.893 24.6167 92.893 24.2V9.725C93.0763 9.675 93.343 9.625 93.693 9.575C94.0596 9.50833 94.4263 9.475 94.793 9.475C95.1596 9.475 95.4846 9.5 95.768 9.55C96.068 9.6 96.318 9.7 96.518 9.85C96.718 10 96.868 10.2083 96.968 10.475C97.0846 10.725 97.143 11.0583 97.143 11.475V18.075L101.443 13.675C102.31 13.675 103.001 13.8667 103.518 14.25C104.051 14.6333 104.318 15.1167 104.318 15.7C104.318 15.95 104.276 16.1833 104.193 16.4C104.11 16.6 103.976 16.8083 103.793 17.025C103.626 17.2417 103.401 17.475 103.118 17.725C102.851 17.9583 102.535 18.2333 102.168 18.55L100.718 19.8L104.718 23.8Z" fill="black"/>
<path d="M13.5 5.86603C14.4282 5.33013 15.5718 5.33013 16.5 5.86603L26.4904 11.634C27.4186 12.1699 27.9904 13.1603 27.9904 14.2321V25.768C27.9904 26.8397 27.4186 27.8301 26.4904 28.366L16.5 34.134C15.5718 34.6699 14.4282 34.6699 13.5 34.134L3.50962 28.366C2.58142 27.8301 2.00962 26.8397 2.00962 25.768V14.2321C2.00962 13.1603 2.58142 12.1699 3.50962 11.634L13.5 5.86603Z" fill="#6358FF"/>
</svg>
