<svg width="41" height="39" viewBox="0 0 41 39" fill="none" xmlns="http://www.w3.org/2000/svg">
<path fill-rule="evenodd" clip-rule="evenodd" d="M0 2.5C0 1.11929 1.11929 0 2.5 0H37.7696C39.1503 0 40.2696 1.11929 40.2696 2.5C40.2696 3.88071 39.1503 5 37.7696 5H2.5C1.11929 5 0 3.88071 0 2.5ZM0 19.4237C0 18.043 1.11929 16.9237 2.5 16.9237H30.7157C32.0964 16.9237 33.2157 18.043 33.2157 19.4237C33.2157 20.8044 32.0964 21.9237 30.7157 21.9237H2.5C1.11929 21.9237 0 20.8044 0 19.4237ZM2.5 33.8474C1.11929 33.8474 0 34.9667 0 36.3474C0 37.7281 1.11929 38.8474 2.5 38.8474H23.6617C25.0424 38.8474 26.1617 37.7281 26.1617 36.3474C26.1617 34.9667 25.0424 33.8474 23.6617 33.8474H2.5Z" fill="#6358FF"/>
</svg>
