<svg width="40" height="40" viewBox="0 0 40 40" fill="none" xmlns="http://www.w3.org/2000/svg">
<rect width="40" height="40" rx="15" fill="#E4E2FF"/>
<path fill-rule="evenodd" clip-rule="evenodd" d="M31.9867 8.60758C31.9593 8.46539 31.8906 8.32959 31.7805 8.2195C31.5639 8.00286 31.2477 7.94646 30.9792 8.0503L8.50224 15.9172C8.21199 16.0188 8.01316 16.2873 8.00063 16.5946C7.98809 16.9018 8.16439 17.1856 8.4454 17.3105L18.3069 21.6934L22.6899 31.5549C22.8147 31.836 23.0985 32.0123 23.4058 31.9997C23.713 31.9872 23.9815 31.7884 24.0831 31.4981L31.9576 8.99956M31.9867 8.60758C32.0113 8.73475 32.003 8.86853 31.9589 8.99571ZM19.7696 21.2911L29.4569 11.6038L23.2923 29.217L19.7696 21.2911ZM18.7088 20.2305L10.7833 16.7081L28.3956 10.5438L18.7088 20.2305Z" fill="#9088FF"/>
</svg>
